<svg width="20" height="20" viewBox="0 0 20 20" fill="none" xmlns="http://www.w3.org/2000/svg">
<path d="M17.8083 11.3417C17.2666 14.625 14.825 17.15 11.5583 17.7667C9.76662 18.1083 8.06661 17.8417 6.59994 17.15C6.35828 17.0333 5.9666 16.9833 5.70827 17.0417C5.15827 17.175 4.2333 17.4 3.44997 17.5833C2.69997 17.7667 2.23331 17.3 2.41664 16.55L2.95828 14.3C3.02495 14.0417 2.96661 13.6417 2.84994 13.4C2.18328 12 1.91663 10.375 2.19163 8.66667C2.72496 5.38334 5.37497 2.725 8.6583 2.18334C14.075 1.30834 18.6916 5.925 17.8083 11.3417Z" stroke="#4182EB" stroke-width="1.25" stroke-miterlimit="10" stroke-linecap="round" stroke-linejoin="round"/>
<path d="M11.7412 5.48334C13.0245 5.98334 14.0412 7.00834 14.5245 8.3" stroke="#4182EB" stroke-width="1.25" stroke-miterlimit="10" stroke-linecap="round" stroke-linejoin="round"/>
</svg>
