<svg width="17" height="16" viewBox="0 0 17 16" fill="none" xmlns="http://www.w3.org/2000/svg">
<path d="M10.8866 8.00001C10.8866 9.32001 9.81995 10.3867 8.49995 10.3867C7.17995 10.3867 6.11328 9.32001 6.11328 8.00001C6.11328 6.68001 7.17995 5.61334 8.49995 5.61334C9.81995 5.61334 10.8866 6.68001 10.8866 8.00001Z" stroke="#6A7480" stroke-width="1.5" stroke-linecap="round" stroke-linejoin="round"/>
<path d="M8.4999 13.5133C10.8532 13.5133 13.0466 12.1266 14.5732 9.72665C15.1732 8.78665 15.1732 7.20665 14.5732 6.26665C13.0466 3.86665 10.8532 2.47998 8.4999 2.47998C6.14656 2.47998 3.95323 3.86665 2.42656 6.26665C1.82656 7.20665 1.82656 8.78665 2.42656 9.72665C3.95323 12.1266 6.14656 13.5133 8.4999 13.5133Z" stroke="#6A7480" stroke-width="1.5" stroke-linecap="round" stroke-linejoin="round"/>
</svg>
