<svg width="17" height="16" viewBox="0 0 17 16" fill="none" xmlns="http://www.w3.org/2000/svg">
<path fill-rule="evenodd" clip-rule="evenodd" d="M2.67393 -6.10352e-05C2.03741 -6.10352e-05 1.42696 0.252795 0.97687 0.702883C0.526782 1.15297 0.273926 1.76342 0.273926 2.39994L0.273926 13.5999C0.273926 14.2365 0.526782 14.8469 0.97687 15.297C1.42696 15.7471 2.03741 15.9999 2.67393 15.9999H13.8739C14.5104 15.9999 15.1209 15.7471 15.571 15.297C16.0211 14.8469 16.2739 14.2365 16.2739 13.5999V2.39994C16.2739 1.76342 16.0211 1.15297 15.571 0.702883C15.1209 0.252795 14.5104 -6.10352e-05 13.8739 -6.10352e-05H2.67393ZM5.07393 3.19994C4.64958 3.19994 4.24261 3.36851 3.94255 3.66857C3.6425 3.96863 3.47393 4.37559 3.47393 4.79994C3.47393 5.22429 3.6425 5.63125 3.94255 5.93131C4.24261 6.23137 4.64958 6.39994 5.07393 6.39994C5.49827 6.39994 5.90524 6.23137 6.2053 5.93131C6.50536 5.63125 6.67393 5.22429 6.67393 4.79994C6.67393 4.37559 6.50536 3.96863 6.2053 3.66857C5.90524 3.36851 5.49827 3.19994 5.07393 3.19994ZM11.4387 6.39994C11.5449 6.3953 11.651 6.41187 11.7507 6.44868C11.8504 6.48549 11.9418 6.54181 12.0195 6.61434L13.8739 8.34554V13.5999H4.63713L10.8787 6.66554C10.9497 6.58624 11.0358 6.52191 11.132 6.4763C11.2281 6.4307 11.3324 6.40474 11.4387 6.39994Z" fill="#4182EB"/>
</svg>
