<svg width="20" height="20" viewBox="0 0 20 20" fill="none" xmlns="http://www.w3.org/2000/svg">
<g clip-path="url(#clip0_2071_2576)">
<path d="M14.1665 18.9584H5.83317C3.1915 18.9584 1.0415 16.8084 1.0415 14.1667V5.83335C1.0415 3.19169 3.1915 1.04169 5.83317 1.04169H14.1665C16.8082 1.04169 18.9582 3.19169 18.9582 5.83335V14.1667C18.9582 16.8084 16.8082 18.9584 14.1665 18.9584ZM5.83317 2.29169C3.88317 2.29169 2.2915 3.88335 2.2915 5.83335V14.1667C2.2915 16.1167 3.88317 17.7084 5.83317 17.7084H14.1665C16.1165 17.7084 17.7082 16.1167 17.7082 14.1667V5.83335C17.7082 3.88335 16.1165 2.29169 14.1665 2.29169H5.83317Z" fill="#4182EB"/>
<path d="M6.66667 8.95833C5.4 8.95833 4.375 7.93333 4.375 6.66667C4.375 5.4 5.4 4.375 6.66667 4.375C7.93333 4.375 8.95833 5.4 8.95833 6.66667C8.95833 7.93333 7.93333 8.95833 6.66667 8.95833ZM6.66667 5.625C6.09167 5.625 5.625 6.09167 5.625 6.66667C5.625 7.24167 6.09167 7.70833 6.66667 7.70833C7.24167 7.70833 7.70833 7.24167 7.70833 6.66667C7.70833 6.09167 7.24167 5.625 6.66667 5.625Z" fill="#4182EB"/>
<path d="M15.4665 15.5416C15.2499 15.5416 15.0332 15.425 14.9165 15.2166L12.3831 10.625C12.2331 10.3583 11.9915 10.3333 11.8831 10.3417C11.7831 10.3417 11.5332 10.3833 11.3998 10.6583L10.5914 12.3666C10.3831 12.8 9.97482 13.1083 9.49982 13.1833C9.01649 13.2583 8.54145 13.0916 8.20812 12.7416L7.78316 12.2917C7.66649 12.1667 7.49145 12.1 7.32478 12.1166C7.14978 12.1333 6.99979 12.225 6.90812 12.375L5.14146 15.1833C4.95812 15.475 4.56648 15.5667 4.28315 15.3833C3.99148 15.2 3.89978 14.8166 4.09145 14.525L5.85816 11.7166C6.15816 11.2416 6.64982 10.9416 7.20816 10.8833C7.76649 10.8333 8.30813 11.0333 8.69146 11.4416L9.11647 11.8917C9.18314 11.9583 9.25811 11.9583 9.29978 11.9583C9.34145 11.95 9.41645 11.925 9.45812 11.8417L10.2664 10.1333C10.5581 9.51665 11.1581 9.12498 11.8414 9.09998C12.5414 9.07498 13.1498 9.43332 13.4748 10.025L16.0081 14.6166C16.1748 14.9166 16.0665 15.3 15.7665 15.4666C15.6665 15.5166 15.5665 15.5416 15.4665 15.5416Z" fill="#4182EB"/>
</g>
<defs>
<clipPath id="clip0_2071_2576">
<rect width="20" height="20" fill="white"/>
</clipPath>
</defs>
</svg>
