<svg width="25" height="26" viewBox="0 0 25 26" fill="none" xmlns="http://www.w3.org/2000/svg">
<path d="M12.5218 3.53143C9.07392 3.53143 6.27184 6.33352 6.27184 9.78143V12.7919C6.27184 13.4273 6.00101 14.396 5.67809 14.9377L4.48017 16.9273C3.74059 18.1564 4.25101 19.521 5.60517 19.9794C10.0948 21.4794 14.9385 21.4794 19.4281 19.9794C20.6885 19.5627 21.2406 18.0731 20.5531 16.9273L19.3552 14.9377C19.0427 14.396 18.7718 13.4273 18.7718 12.7919V9.78143C18.7718 6.34393 15.9593 3.53143 12.5218 3.53143Z" stroke="#3B3B3B" stroke-width="1.5" stroke-miterlimit="10" stroke-linecap="round"/>
<path d="M14.446 3.83319C14.123 3.73944 13.7897 3.66652 13.446 3.62486C12.446 3.49986 11.4876 3.57277 10.5918 3.83319C10.8939 3.06236 11.6439 2.52069 12.5189 2.52069C13.3939 2.52069 14.1439 3.06236 14.446 3.83319Z" stroke="#3B3B3B" stroke-width="1.5" stroke-miterlimit="10" stroke-linecap="round" stroke-linejoin="round"/>
<path d="M15.6475 20.3543C15.6475 22.0731 14.2412 23.4793 12.5225 23.4793C11.6683 23.4793 10.8766 23.1251 10.3141 22.5626C9.75163 22.0001 9.39746 21.2085 9.39746 20.3543" stroke="#3B3B3B" stroke-width="1.5" stroke-miterlimit="10"/>
</svg>
